<svg width="26" height="26" xmlns="http://www.w3.org/2000/svg">

 <g>
  <title>background</title>
  <rect fill="none" id="canvas_background" height="402" width="582" y="-1" x="-1"/>
 </g>
 <g>
  <title>Layer 1</title>
  <path id="svg_2" fill="#1de0fa" d="m22,1l-18,0c-0.41406,0 -0.75,0.33594 -0.75,0.75l0,18.40137c0,0.09765 0.01996,0.19494 0.05792,0.28662c0.03803,0.09161 0.09271,0.17456 0.16181,0.24365l4.09863,4.09863c0.06909,0.0691 0.15204,0.12378 0.24365,0.16181c0.09174,0.03796 0.18897,0.05792 0.28662,0.05792l13.90137,0c0.41406,0 0.75,-0.33594 0.75,-0.75l0,-22.5c0,-0.41406 -0.33594,-0.75 -0.75,-0.75zm-14.65137,21.43945l-1.53808,-1.53808l1.53808,0l0,1.53808zm13.90137,1.06055l-12.40137,0l0,-3.34863c0,-0.41407 -0.33593,-0.75 -0.75,-0.75l-3.34863,0l0,-16.90137l16.5,0l0,21z"/>
  <path id="svg_3" fill="#1de0fa" d="m7.04932,5.5l5.38818,0c0.27637,0 0.5,-0.22363 0.5,-0.5s-0.22363,-0.5 -0.5,-0.5l-5.38818,0c-0.27637,0 -0.5,0.22363 -0.5,0.5s0.22363,0.5 0.5,0.5z"/>
  <path id="svg_4" fill="#1de0fa" d="m7.04932,7.5l2.69384,0c0.27637,0 0.5,-0.22363 0.5,-0.5s-0.22363,-0.5 -0.5,-0.5l-2.69384,0c-0.27637,0 -0.5,0.22363 -0.5,0.5s0.22363,0.5 0.5,0.5z"/>
  <path id="svg_5" fill="#1de0fa" d="m10.875,7c0,0.27637 0.22363,0.5 0.5,0.5l3.25,0c0.27637,0 0.5,-0.22363 0.5,-0.5s-0.22363,-0.5 -0.5,-0.5l-3.25,0c-0.27637,0 -0.5,0.22363 -0.5,0.5z"/>
  <path stroke="#000000" stroke-opacity="0" id="svg_6" fill="#1de0fa" d="m7,15.75l12,0c0.27637,0 0.5,-0.22363 0.5,-0.5l0,-6c0,-0.27637 -0.22363,-0.5 -0.5,-0.5l-12,0c-0.27637,0 -0.5,0.22363 -0.5,0.5l0,6c0,0.27637 0.22363,0.5 0.5,0.5zm9.5,-4.71875l0,1l-1.625,0l0,-1l1.625,0zm-1.625,-0.5l0,-0.78125l1.625,0l0,0.78125l-1.625,0zm0,3l0,-1l1.625,0l0,1l-1.625,0zm1.625,0.5l0,0.71875l-1.625,0l0,-0.71875l1.625,0zm-9,-1.5l6.875,0l0,1l-6.875,0l0,-1zm9.5,0l1.5,0l0,1l-1.5,0l0,-1zm1.5,-0.5l-1.5,0l0,-1l1.5,0l0,1zm-4.125,0l-6.875,0l0,-1l6.875,0l0,1zm-6.875,2l6.875,0l0,0.71875l-6.875,0l0,-0.71875zm9.5,0.71875l0,-0.71875l1.5,0l0,0.71875l-1.5,0zm1.5,-4.21875l-1.5,0l0,-0.78125l1.5,0l0,0.78125zm-4.125,-0.78125l0,0.78125l-6.875,0l0,-0.78125l6.875,0z"/>
  <path id="svg_8" fill="#1de0fa" d="m12.4375,17.5l-5.38818,0c-0.27637,0 -0.5,0.22363 -0.5,0.5s0.22363,0.5 0.5,0.5l5.38818,0c0.27637,0 0.5,-0.22363 0.5,-0.5s-0.22363,-0.5 -0.5,-0.5z"/>
  <path id="svg_9" fill="#1de0fa" d="m19.25793,17.5l-5.38818,0c-0.27637,0 -0.5,0.22363 -0.5,0.5s0.22363,0.5 0.5,0.5l5.38818,0c0.27637,0 0.5,-0.22363 0.5,-0.5s-0.22363,-0.5 -0.5,-0.5z"/>
  <path id="svg_10" fill="#1de0fa" d="m19.21781,4.501062l-5.38818,0c-0.27637,0 -0.5,0.22363 -0.5,0.5s0.22363,0.5 0.5,0.5l5.38818,0c0.27637,0 0.5,-0.22363 0.5,-0.5s-0.22363,-0.5 -0.5,-0.5z"/>
 </g>
</svg>