<svg width="32" height="32" xmlns="http://www.w3.org/2000/svg">

 <g>
  <title>background</title>
  <rect fill="#020322" id="canvas_background" height="34" width="34" y="-1" x="-1"/>
 </g>
 <g>
  <title>Layer 1</title>
  <path fill="#e936ab" stroke="null" id="svg_1" d="m22.576984,10.709305l-1.433678,0l-1.227516,-1.808085l-6.794548,0l-1.227516,1.808085l-1.433678,0c-1.397405,0 -2.534146,1.116252 -2.534146,2.488468l0,6.474272c0,1.372216 1.136741,2.488468 2.534146,2.488468l12.116936,0c1.397159,0 2.534146,-1.116252 2.534146,-2.488468l0,-6.474272c0,-1.372216 -1.136987,-2.488468 -2.534146,-2.488468zm1.30663,8.96274c0,0.707444 -0.5862,1.283078 -1.30663,1.283078l-12.116936,0c-0.720429,0 -1.30663,-0.575634 -1.30663,-1.283078l0,-6.474272c0,-0.707444 0.5862,-1.283078 1.30663,-1.283078l1.762161,0c0.020684,0 0.038053,-0.009402 0.058123,-0.011451c0.041367,-0.004159 0.080034,-0.011813 0.119867,-0.023867c0.038667,-0.011753 0.074326,-0.025313 0.109065,-0.044117c0.032959,-0.017358 0.062665,-0.037367 0.092309,-0.060932c0.033573,-0.02676 0.06291,-0.055026 0.089916,-0.087993c0.012643,-0.014706 0.030013,-0.023565 0.041367,-0.040019l1.045353,-1.539705l5.480676,0l1.045292,1.539705c0.017983,0.026217 0.04014,0.046769 0.06113,0.069129c0.008961,0.009703 0.016203,0.020612 0.026392,0.029713c0.050328,0.047673 0.107285,0.084438 0.169029,0.112101c0.013196,0.006208 0.026944,0.010306 0.040754,0.015007c0.068311,0.025373 0.139016,0.04243 0.212115,0.04243c0.000614,0 0.001228,0 0.001228,0l1.762161,0c0.720429,0 1.30663,0.575634 1.30663,1.283078l0,6.474272zm-7.365098,-6.551959c-1.692008,0 -3.068791,1.351966 -3.068791,3.013476s1.376782,3.013476 3.068791,3.013476s3.068791,-1.351966 3.068791,-3.013476s-1.376782,-3.013476 -3.068791,-3.013476zm0,4.821561c-1.01534,0 -1.841274,-0.811047 -1.841274,-1.808085s0.825934,-1.808085 1.841274,-1.808085s1.841274,0.811047 1.841274,1.808085s-0.825934,1.808085 -1.841274,1.808085z"/>
 </g>
</svg>